<?xml version="1.0" encoding="UTF-8" standalone="no"?>
<!DOCTYPE svg PUBLIC "-//W3C//DTD SVG 1.1//EN"
 "http://www.w3.org/Graphics/SVG/1.1/DTD/svg11.dtd">
<!-- Generated by graphviz version 14.0.4 (20251115.1723)
 -->
<!-- Title: G Pages: 1 -->
<svg width="215pt" height="351pt"
 viewBox="0.00 0.00 215.00 351.00" xmlns="http://www.w3.org/2000/svg" xmlns:xlink="http://www.w3.org/1999/xlink">
<g id="graph0" class="graph" transform="scale(1 1) rotate(0) translate(4 346.51)">
<title>G</title><style>.edge>path:hover{stroke-width:8}</style>
<polygon fill="white" stroke="none" points="-4,4 -4,-346.51 210.74,-346.51 210.74,4 -4,4"/>
<!-- anthropic -->
<g id="node1" class="node">
<title>anthropic</title><style>.edge>path:hover{stroke-width:8}</style>
<ellipse fill="#c04040" stroke="black" cx="33.52" cy="-171.25" rx="33.52" ry="18"/>
<text xml:space="preserve" text-anchor="middle" x="33.52" y="-167.75" font-family="Helvetica,sans-Serif" font-size="10.00" fill="#ffffff">anthropic</text>
</g>
<!-- brain_claude_client -->
<g id="node2" class="node">
<title>brain_claude_client</title><style>.edge>path:hover{stroke-width:8}</style>
<ellipse fill="#75a446" stroke="black" cx="106.52" cy="-22.63" rx="51.62" ry="22.63"/>
<text xml:space="preserve" text-anchor="middle" x="106.52" y="-25.13" font-family="Helvetica,sans-Serif" font-size="10.00" fill="#000000">brain.</text>
<text xml:space="preserve" text-anchor="middle" x="106.52" y="-13.13" font-family="Helvetica,sans-Serif" font-size="10.00" fill="#000000">claude_client</text>
</g>
<!-- anthropic&#45;&gt;brain_claude_client -->
<g id="edge1" class="edge">
<title>anthropic&#45;&gt;brain_claude_client</title><style>.edge>path:hover{stroke-width:8}</style>
<path fill="none" stroke="black" d="M34.47,-152.93C36.1,-134.29 40.52,-104.22 52.52,-81.25 58.25,-70.3 66.65,-59.91 75.12,-51.05"/>
<polygon fill="#c04040" stroke="black" points="77.47,-53.65 82.1,-44.12 72.54,-48.68 77.47,-53.65"/>
</g>
<!-- brain_memory -->
<g id="node3" class="node">
<title>brain_memory</title><style>.edge>path:hover{stroke-width:8}</style>
<ellipse fill="#7ab83d" stroke="black" cx="106.52" cy="-99.25" rx="45.25" ry="18"/>
<text xml:space="preserve" text-anchor="middle" x="106.52" y="-95.75" font-family="Helvetica,sans-Serif" font-size="10.00" fill="#000000">brain.memory</text>
</g>
<!-- brain_memory&#45;&gt;brain_claude_client -->
<g id="edge2" class="edge">
<title>brain_memory&#45;&gt;brain_claude_client</title><style>.edge>path:hover{stroke-width:8}</style>
<path fill="none" stroke="black" d="M106.52,-80.95C106.52,-73.81 106.52,-65.28 106.52,-57.01"/>
<polygon fill="#7ab83d" stroke="black" points="110.02,-57.18 106.52,-47.18 103.02,-57.18 110.02,-57.18"/>
</g>
<!-- chromadb -->
<g id="node4" class="node">
<title>chromadb</title><style>.edge>path:hover{stroke-width:8}</style>
<ellipse fill="#3db8b8" stroke="black" cx="169.52" cy="-243.25" rx="35.33" ry="18"/>
<text xml:space="preserve" text-anchor="middle" x="169.52" y="-239.75" font-family="Helvetica,sans-Serif" font-size="10.00" fill="#000000">chromadb</text>
</g>
<!-- chromadb&#45;&gt;brain_memory -->
<g id="edge3" class="edge">
<title>chromadb&#45;&gt;brain_memory</title><style>.edge>path:hover{stroke-width:8}</style>
<path fill="none" stroke="black" d="M148.65,-228.54C132.31,-216.17 111.55,-196.26 106.52,-172.25"/>
</g>
<!-- chromadb_config -->
<g id="node5" class="node">
<title>chromadb_config</title><style>.edge>path:hover{stroke-width:8}</style>
<ellipse fill="#47c2c2" stroke="black" cx="137.52" cy="-319.88" rx="43.66" ry="22.63"/>
<text xml:space="preserve" text-anchor="middle" x="137.52" y="-322.38" font-family="Helvetica,sans-Serif" font-size="10.00" fill="#000000">chromadb.</text>
<text xml:space="preserve" text-anchor="middle" x="137.52" y="-310.38" font-family="Helvetica,sans-Serif" font-size="10.00" fill="#000000">config</text>
</g>
<!-- chromadb_config&#45;&gt;brain_memory -->
<g id="edge4" class="edge">
<title>chromadb_config&#45;&gt;brain_memory</title><style>.edge>path:hover{stroke-width:8}</style>
<path fill="none" stroke="black" d="M106.52,-170.25C103.73,-156.91 103.39,-141.83 103.88,-129.08"/>
<polygon fill="#47c2c2" stroke="black" points="107.37,-129.42 104.47,-119.23 100.38,-129 107.37,-129.42"/>
<path fill="none" stroke="black" d="M132.87,-297.03C126.78,-268.38 115.79,-216.57 106.52,-172.25"/>
</g>
<!-- chromadb_config&#45;&gt;chromadb -->
<g id="edge5" class="edge">
<title>chromadb_config&#45;&gt;chromadb</title><style>.edge>path:hover{stroke-width:8}</style>
<path fill="none" stroke="black" d="M146.78,-297.3C150.22,-289.28 154.17,-280.07 157.8,-271.6"/>
<polygon fill="#47c2c2" stroke="black" points="161,-273.01 161.73,-262.44 154.57,-270.25 161,-273.01"/>
</g>
<!-- dotenv -->
<g id="node6" class="node">
<title>dotenv</title><style>.edge>path:hover{stroke-width:8}</style>
<ellipse fill="#8553b6" stroke="black" cx="179.52" cy="-171.25" rx="27.21" ry="18"/>
<text xml:space="preserve" text-anchor="middle" x="179.52" y="-167.75" font-family="Helvetica,sans-Serif" font-size="10.00" fill="#ffffff">dotenv</text>
</g>
<!-- dotenv&#45;&gt;brain_claude_client -->
<g id="edge6" class="edge">
<title>dotenv&#45;&gt;brain_claude_client</title><style>.edge>path:hover{stroke-width:8}</style>
<path fill="none" stroke="black" d="M178.58,-152.93C176.95,-134.29 172.53,-104.22 160.52,-81.25 154.8,-70.3 146.4,-59.91 137.93,-51.05"/>
<polygon fill="#8553b6" stroke="black" points="140.51,-48.68 130.95,-44.12 135.58,-53.65 140.51,-48.68"/>
</g>
</g>
</svg>
