<?xml version="1.0" encoding="UTF-8" standalone="no"?>
<!DOCTYPE svg PUBLIC "-//W3C//DTD SVG 1.1//EN"
 "http://www.w3.org/Graphics/SVG/1.1/DTD/svg11.dtd">
<!-- Generated by graphviz version 14.0.4 (20251115.1723)
 -->
<!-- Title: G Pages: 1 -->
<svg width="659pt" height="492pt"
 viewBox="0.00 0.00 659.00 492.00" xmlns="http://www.w3.org/2000/svg" xmlns:xlink="http://www.w3.org/1999/xlink">
<g id="graph0" class="graph" transform="scale(1 1) rotate(0) translate(4 487.93)">
<title>G</title><style>.edge>path:hover{stroke-width:8}</style>
<polygon fill="white" stroke="none" points="-4,4 -4,-487.93 654.63,-487.93 654.63,4 -4,4"/>
<!-- anthropic -->
<g id="node1" class="node">
<title>anthropic</title><style>.edge>path:hover{stroke-width:8}</style>
<ellipse fill="#bfc040" stroke="black" cx="33.52" cy="-312.68" rx="33.52" ry="18"/>
<text xml:space="preserve" text-anchor="middle" x="33.52" y="-309.18" font-family="Helvetica,sans-Serif" font-size="10.00" fill="#000000">anthropic</text>
</g>
<!-- PersonalOS_brain_claude_client -->
<g id="node7" class="node">
<title>PersonalOS_brain_claude_client</title><style>.edge>path:hover{stroke-width:8}</style>
<ellipse fill="#a44646" stroke="black" cx="231.52" cy="-31.11" rx="51.62" ry="31.11"/>
<text xml:space="preserve" text-anchor="middle" x="231.52" y="-39.61" font-family="Helvetica,sans-Serif" font-size="10.00" fill="#ffffff">PersonalOS.</text>
<text xml:space="preserve" text-anchor="middle" x="231.52" y="-27.61" font-family="Helvetica,sans-Serif" font-size="10.00" fill="#ffffff">brain.</text>
<text xml:space="preserve" text-anchor="middle" x="231.52" y="-15.61" font-family="Helvetica,sans-Serif" font-size="10.00" fill="#ffffff">claude_client</text>
</g>
<!-- anthropic&#45;&gt;PersonalOS_brain_claude_client -->
<g id="edge1" class="edge">
<title>anthropic&#45;&gt;PersonalOS_brain_claude_client</title><style>.edge>path:hover{stroke-width:8}</style>
<path fill="none" stroke="black" d="M33.52,-128.34C40.54,-114.16 40.23,-108.19 52.52,-98.23 86.97,-70.33 134.3,-53.53 171.64,-43.85"/>
<polygon fill="#bfc040" stroke="black" points="172.05,-47.36 180.92,-41.56 170.37,-40.56 172.05,-47.36"/>
<path fill="none" stroke="black" d="M28.76,-294.55C20.4,-260.99 6.43,-185.08 33.52,-130.34"/>
</g>
<!-- chromadb -->
<g id="node2" class="node">
<title>chromadb</title><style>.edge>path:hover{stroke-width:8}</style>
<ellipse fill="#3db83d" stroke="black" cx="168.52" cy="-384.68" rx="35.33" ry="18"/>
<text xml:space="preserve" text-anchor="middle" x="168.52" y="-381.18" font-family="Helvetica,sans-Serif" font-size="10.00" fill="#000000">chromadb</text>
</g>
<!-- PersonalOS_brain_memory -->
<g id="node8" class="node">
<title>PersonalOS_brain_memory</title><style>.edge>path:hover{stroke-width:8}</style>
<ellipse fill="#b83d3d" stroke="black" cx="231.52" cy="-129.34" rx="50.56" ry="31.11"/>
<text xml:space="preserve" text-anchor="middle" x="231.52" y="-137.84" font-family="Helvetica,sans-Serif" font-size="10.00" fill="#ffffff">PersonalOS.</text>
<text xml:space="preserve" text-anchor="middle" x="231.52" y="-125.84" font-family="Helvetica,sans-Serif" font-size="10.00" fill="#ffffff">brain.</text>
<text xml:space="preserve" text-anchor="middle" x="231.52" y="-113.84" font-family="Helvetica,sans-Serif" font-size="10.00" fill="#ffffff">memory</text>
</g>
<!-- chromadb&#45;&gt;PersonalOS_brain_memory -->
<g id="edge2" class="edge">
<title>chromadb&#45;&gt;PersonalOS_brain_memory</title><style>.edge>path:hover{stroke-width:8}</style>
<path fill="none" stroke="black" d="M189.4,-369.96C205.74,-357.59 226.5,-337.68 231.52,-313.68"/>
<path fill="none" stroke="black" d="M231.52,-311.68C241.38,-264.54 239.46,-209 236.32,-171.92"/>
<polygon fill="#3db83d" stroke="black" points="239.81,-171.71 235.41,-162.07 232.84,-172.35 239.81,-171.71"/>
</g>
<!-- chromadb_config -->
<g id="node3" class="node">
<title>chromadb_config</title><style>.edge>path:hover{stroke-width:8}</style>
<ellipse fill="#47c247" stroke="black" cx="199.52" cy="-461.3" rx="43.66" ry="22.63"/>
<text xml:space="preserve" text-anchor="middle" x="199.52" y="-463.8" font-family="Helvetica,sans-Serif" font-size="10.00" fill="#000000">chromadb.</text>
<text xml:space="preserve" text-anchor="middle" x="199.52" y="-451.8" font-family="Helvetica,sans-Serif" font-size="10.00" fill="#000000">config</text>
</g>
<!-- chromadb_config&#45;&gt;chromadb -->
<g id="edge3" class="edge">
<title>chromadb_config&#45;&gt;chromadb</title><style>.edge>path:hover{stroke-width:8}</style>
<path fill="none" stroke="black" d="M190.56,-438.72C187.23,-430.7 183.4,-421.49 179.88,-413.02"/>
<polygon fill="#47c247" stroke="black" points="183.15,-411.76 176.08,-403.87 176.69,-414.45 183.15,-411.76"/>
</g>
<!-- chromadb_config&#45;&gt;PersonalOS_brain_memory -->
<g id="edge4" class="edge">
<title>chromadb_config&#45;&gt;PersonalOS_brain_memory</title><style>.edge>path:hover{stroke-width:8}</style>
<path fill="none" stroke="black" d="M204.52,-438.43C206.96,-427.66 209.93,-414.5 212.52,-402.68 221.2,-363.17 221.63,-352.89 231.52,-313.68"/>
</g>
<!-- dotenv -->
<g id="node4" class="node">
<title>dotenv</title><style>.edge>path:hover{stroke-width:8}</style>
<ellipse fill="#47c2c2" stroke="black" cx="112.52" cy="-312.68" rx="27.21" ry="18"/>
<text xml:space="preserve" text-anchor="middle" x="112.52" y="-309.18" font-family="Helvetica,sans-Serif" font-size="10.00" fill="#000000">dotenv</text>
</g>
<!-- dotenv&#45;&gt;PersonalOS_brain_claude_client -->
<g id="edge5" class="edge">
<title>dotenv&#45;&gt;PersonalOS_brain_claude_client</title><style>.edge>path:hover{stroke-width:8}</style>
<path fill="none" stroke="black" d="M71.52,-226.56C61.63,-181.66 13.13,-171.55 33.52,-130.34"/>
<path fill="none" stroke="black" d="M101.7,-295.68C91.51,-279.56 77.03,-253.55 71.52,-228.56"/>
</g>
<!-- PersonalOS_main -->
<g id="node9" class="node">
<title>PersonalOS_main</title><style>.edge>path:hover{stroke-width:8}</style>
<ellipse fill="#b34c4c" stroke="black" cx="112.52" cy="-129.34" rx="50.56" ry="22.63"/>
<text xml:space="preserve" text-anchor="middle" x="112.52" y="-131.84" font-family="Helvetica,sans-Serif" font-size="10.00" fill="#ffffff">PersonalOS.</text>
<text xml:space="preserve" text-anchor="middle" x="112.52" y="-119.84" font-family="Helvetica,sans-Serif" font-size="10.00" fill="#ffffff">main</text>
</g>
<!-- dotenv&#45;&gt;PersonalOS_main -->
<g id="edge6" class="edge">
<title>dotenv&#45;&gt;PersonalOS_main</title><style>.edge>path:hover{stroke-width:8}</style>
<path fill="none" stroke="black" d="M71.52,-226.56C66.43,-203.41 77.19,-178.85 88.96,-160.34"/>
<polygon fill="#47c2c2" stroke="black" points="91.74,-162.48 94.47,-152.24 85.95,-158.54 91.74,-162.48"/>
</g>
<!-- PersonalOS_automation_file_watcher -->
<g id="node5" class="node">
<title>PersonalOS_automation_file_watcher</title><style>.edge>path:hover{stroke-width:8}</style>
<ellipse fill="#a44646" stroke="black" cx="392.52" cy="-227.56" rx="50.56" ry="31.11"/>
<text xml:space="preserve" text-anchor="middle" x="392.52" y="-236.06" font-family="Helvetica,sans-Serif" font-size="10.00" fill="#ffffff">PersonalOS.</text>
<text xml:space="preserve" text-anchor="middle" x="392.52" y="-224.06" font-family="Helvetica,sans-Serif" font-size="10.00" fill="#ffffff">automation.</text>
<text xml:space="preserve" text-anchor="middle" x="392.52" y="-212.06" font-family="Helvetica,sans-Serif" font-size="10.00" fill="#ffffff">file_watcher</text>
</g>
<!-- PersonalOS_automation_morning_routine -->
<g id="node6" class="node">
<title>PersonalOS_automation_morning_routine</title><style>.edge>path:hover{stroke-width:8}</style>
<ellipse fill="#b34c4c" stroke="black" cx="590.52" cy="-227.56" rx="60.1" ry="31.11"/>
<text xml:space="preserve" text-anchor="middle" x="590.52" y="-236.06" font-family="Helvetica,sans-Serif" font-size="10.00" fill="#ffffff">PersonalOS.</text>
<text xml:space="preserve" text-anchor="middle" x="590.52" y="-224.06" font-family="Helvetica,sans-Serif" font-size="10.00" fill="#ffffff">automation.</text>
<text xml:space="preserve" text-anchor="middle" x="590.52" y="-212.06" font-family="Helvetica,sans-Serif" font-size="10.00" fill="#ffffff">morning_routine</text>
</g>
<!-- PersonalOS_brain_memory&#45;&gt;PersonalOS_brain_claude_client -->
<g id="edge7" class="edge">
<title>PersonalOS_brain_memory&#45;&gt;PersonalOS_brain_claude_client</title><style>.edge>path:hover{stroke-width:8}</style>
<path fill="none" stroke="black" d="M231.52,-97.89C231.52,-90.35 231.52,-82.12 231.52,-74.13"/>
<polygon fill="#b83d3d" stroke="black" points="235.02,-74.2 231.52,-64.2 228.02,-74.2 235.02,-74.2"/>
</g>
<!-- schedule -->
<g id="node10" class="node">
<title>schedule</title><style>.edge>path:hover{stroke-width:8}</style>
<ellipse fill="#5353b6" stroke="black" cx="590.52" cy="-461.3" rx="33.07" ry="18"/>
<text xml:space="preserve" text-anchor="middle" x="590.52" y="-457.8" font-family="Helvetica,sans-Serif" font-size="10.00" fill="#ffffff">schedule</text>
</g>
<!-- schedule&#45;&gt;PersonalOS_automation_morning_routine -->
<g id="edge8" class="edge">
<title>schedule&#45;&gt;PersonalOS_automation_morning_routine</title><style>.edge>path:hover{stroke-width:8}</style>
<path fill="none" stroke="black" d="M590.52,-442.89C590.52,-406.56 590.52,-321.83 590.52,-270.45"/>
<polygon fill="#5353b6" stroke="black" points="594.02,-270.6 590.52,-260.6 587.02,-270.6 594.02,-270.6"/>
</g>
<!-- watchdog -->
<g id="node11" class="node">
<title>watchdog</title><style>.edge>path:hover{stroke-width:8}</style>
<ellipse fill="#ce3bce" stroke="black" cx="296.52" cy="-461.3" rx="34.88" ry="18"/>
<text xml:space="preserve" text-anchor="middle" x="296.52" y="-457.8" font-family="Helvetica,sans-Serif" font-size="10.00" fill="#ffffff">watchdog</text>
</g>
<!-- watchdog&#45;&gt;PersonalOS_automation_file_watcher -->
<g id="edge9" class="edge">
<title>watchdog&#45;&gt;PersonalOS_automation_file_watcher</title><style>.edge>path:hover{stroke-width:8}</style>
<path fill="none" stroke="black" d="M319.86,-447.89C348.38,-431.92 392.84,-404.04 392.52,-385.68"/>
<path fill="none" stroke="black" d="M392.52,-383.68C391.86,-345.36 391.93,-301.7 392.13,-270.49"/>
<polygon fill="#ce3bce" stroke="black" points="395.63,-270.71 392.2,-260.69 388.63,-270.66 395.63,-270.71"/>
</g>
<!-- watchdog_events -->
<g id="node12" class="node">
<title>watchdog_events</title><style>.edge>path:hover{stroke-width:8}</style>
<ellipse fill="#b34cb3" stroke="black" cx="392.52" cy="-461.3" rx="43.13" ry="22.63"/>
<text xml:space="preserve" text-anchor="middle" x="392.52" y="-463.8" font-family="Helvetica,sans-Serif" font-size="10.00" fill="#ffffff">watchdog.</text>
<text xml:space="preserve" text-anchor="middle" x="392.52" y="-451.8" font-family="Helvetica,sans-Serif" font-size="10.00" fill="#ffffff">events</text>
</g>
<!-- watchdog_events&#45;&gt;PersonalOS_automation_file_watcher -->
<g id="edge10" class="edge">
<title>watchdog_events&#45;&gt;PersonalOS_automation_file_watcher</title><style>.edge>path:hover{stroke-width:8}</style>
<path fill="none" stroke="black" d="M392.72,-438.42C392.81,-423.55 392.83,-403.42 392.52,-385.68"/>
</g>
<!-- watchdog_observers -->
<g id="node13" class="node">
<title>watchdog_observers</title><style>.edge>path:hover{stroke-width:8}</style>
<ellipse fill="#b83db8" stroke="black" cx="496.52" cy="-461.3" rx="43.13" ry="22.63"/>
<text xml:space="preserve" text-anchor="middle" x="496.52" y="-463.8" font-family="Helvetica,sans-Serif" font-size="10.00" fill="#ffffff">watchdog.</text>
<text xml:space="preserve" text-anchor="middle" x="496.52" y="-451.8" font-family="Helvetica,sans-Serif" font-size="10.00" fill="#ffffff">observers</text>
</g>
<!-- watchdog_observers&#45;&gt;PersonalOS_automation_file_watcher -->
<g id="edge11" class="edge">
<title>watchdog_observers&#45;&gt;PersonalOS_automation_file_watcher</title><style>.edge>path:hover{stroke-width:8}</style>
<path fill="none" stroke="black" d="M465.47,-445.08C434.96,-429.09 392.91,-403.78 392.52,-385.68"/>
</g>
</g>
</svg>
